<svg xmlns="http://www.w3.org/2000/svg" viewBox="0 0 88.44 88.44"><defs><style>.cls-1{opacity:0.5;}.cls-2{fill:#fff;}</style></defs><g id="Layer_2" data-name="Layer 2"><g id="Layer_2-2" data-name="Layer 2"><circle class="cls-1" cx="44.22" cy="44.22" r="44.22"/><path class="cls-2" d="M37.87,44.12a2.39,2.39,0,0,1,0,4.14L27.36,54.33,16.85,60.4a2.39,2.39,0,0,1-3.59-2.07V34.05A2.39,2.39,0,0,1,16.85,32l10.51,6.07Z"/><path class="cls-2" d="M62.34,65.67l-.13-.12-1.8-1.62-6.5-5.84a2,2,0,0,1-.67-1.56c0-.72,0-1.44,0-2.16,0-.4-.1-.54-.48-.6a7.22,7.22,0,0,1-4.65-2.72,7.44,7.44,0,0,1-1.25-7.69,7.52,7.52,0,0,1,6-4.94c.29-.05.34-.15.34-.41,0-1.44,0-2.89,0-4.33a1.92,1.92,0,0,1,2-2c5.88,0,11.77,0,17.65,0a2.17,2.17,0,0,1,2.28,2.29c0,7.48,0,15,0,22.43a2,2,0,0,1-1.6,2.17,2.59,2.59,0,0,1-.48,0c-3.29,0-6.57,0-9.85,0-.35,0-.42.1-.42.43,0,2.11,0,4.22,0,6.33v.33C62.82,66.16,62.5,65.81,62.34,65.67Zm10.49-21v-9.6c0-.67-.16-.84-.81-.84H56.45a2.75,2.75,0,0,0-.41,0,.41.41,0,0,0-.37.22c-.07.17.12.23.21.31,2.22,1.87,4.43,3.75,6.65,5.61a.8.8,0,0,1,.33.69q0,6.82,0,13.65c0,.34.1.43.43.43,2.91,0,5.81,0,8.71,0,.69,0,.85-.15.85-.83Zm-14,4-.28-.06c-.76-.12-1.53-.23-2.29-.38-.28-.06-.37,0-.46.27a1.85,1.85,0,0,1-2.32,1.22,2.51,2.51,0,0,1-1.85-2.29c0-.36,0-.43.39-.43,2.21,0,4.41,0,6.62,0,.27,0,.38,0,.37-.35a10.56,10.56,0,0,0-.28-2.51,4.74,4.74,0,0,0-4.44-3.81,4.82,4.82,0,0,0-5.15,2.94,7.53,7.53,0,0,0-.1,5.58,4.4,4.4,0,0,0,3.39,3,8,8,0,0,0,2.4.12A4.55,4.55,0,0,0,58.82,48.63Zm4.44,8.12a.93.93,0,0,0,.93.94.94.94,0,1,0,0-1.87A.92.92,0,0,0,63.26,56.75Z"/><path class="cls-2" d="M53.81,45.16c-.63,0-1.25,0-1.88,0-.12,0-.29.05-.29-.17a2.25,2.25,0,0,1,2.92-2.35A2.37,2.37,0,0,1,56.05,45c0,.24-.16.17-.28.17C55.12,45.17,54.46,45.16,53.81,45.16Z"/><path class="cls-2" d="M62.87,39.05h7.35a.47.47,0,0,0,.46-.47v-.49a.47.47,0,0,0-.46-.46H62c-.24,0-.56,0-.46.39a1.22,1.22,0,0,0,.16.23A3,3,0,0,0,62.87,39.05Z"/><rect class="cls-2" x="64.24" y="40.55" width="6.44" height="1.42" rx="0.71"/><rect class="cls-2" x="64.24" y="43.37" width="6.44" height="1.42" rx="0.71"/><rect class="cls-2" x="64.24" y="46.2" width="6.44" height="1.42" rx="0.71"/><rect class="cls-2" x="64.24" y="49.01" width="6.44" height="1.42" rx="0.71"/><rect class="cls-2" x="64.24" y="51.84" width="6.44" height="1.42" rx="0.71"/></g></g></svg>